#N canvas -215 58 1920 976 12;
#X msg 233 122 devices;
#X obj 273 208 sel 13 10;
#X obj 273 237 group 100;
#X obj 272 273 list tosymbol;
#X obj 273 169 comport 0 9600;
#X msg 346 122 open \$1;
#X obj 232 77 loadbang;
#X text 425 124 Elegir puerto serial;
#X text 388 174 Comunicación serial;
#X text 372 211 Detecta cambio de línea;
#X text 374 240 Agrupar mensaje;
#X text 381 265 Convertir ASCII a símbolo;
#X text 380 296 Símbolo a número;
#X msg 330 62 close;
#X obj 276 296 symbol2any;
#N canvas 128 128 450 300 note 0;
#X obj 179 210 noteout;
#X obj 165 154 unpack f f f;
#X msg 138 88 \$1 40 0;
#X msg 235 116 \$1 0 0;
#X obj 211 86 pipe \$1;
#X obj 121 22 inlet;
#X obj 321 23 inlet;
#X connect 1 0 0 0;
#X connect 1 1 0 1;
#X connect 1 2 0 2;
#X connect 2 0 1 0;
#X connect 3 0 1 0;
#X connect 4 0 3 0;
#X connect 5 0 2 0;
#X connect 5 0 4 0;
#X connect 6 0 4 1;
#X restore 1000 449 pd note;
#N canvas 128 128 450 300 note 0;
#X obj 179 210 noteout;
#X obj 165 154 unpack f f f;
#X msg 138 88 \$1 40 0;
#X msg 318 84 \$1 0 0;
#X obj 211 86 pipe \$1;
#X obj 121 22 inlet;
#X obj 321 23 inlet;
#X connect 1 0 0 0;
#X connect 1 1 0 1;
#X connect 1 2 0 2;
#X connect 2 0 1 0;
#X connect 3 0 1 0;
#X connect 4 0 3 0;
#X connect 5 0 2 0;
#X connect 5 0 4 0;
#X connect 6 0 4 1;
#X restore 1063 452 pd note;
#N canvas 128 128 450 300 note 0;
#X obj 179 210 noteout;
#X obj 165 154 unpack f f f;
#X msg 138 88 \$1 40 0;
#X msg 318 84 \$1 0 0;
#X obj 211 86 pipe \$1;
#X obj 121 22 inlet;
#X obj 321 23 inlet;
#X connect 1 0 0 0;
#X connect 1 1 0 1;
#X connect 1 2 0 2;
#X connect 2 0 1 0;
#X connect 3 0 1 0;
#X connect 4 0 3 0;
#X connect 5 0 2 0;
#X connect 5 0 4 0;
#X connect 6 0 4 1;
#X restore 1135 452 pd note;
#N canvas 128 128 450 300 note 0;
#X obj 179 210 noteout;
#X obj 165 154 unpack f f f;
#X msg 138 88 \$1 40 0;
#X msg 318 84 \$1 0 0;
#X obj 211 86 pipe \$1;
#X obj 121 22 inlet;
#X obj 321 23 inlet;
#X connect 1 0 0 0;
#X connect 1 1 0 1;
#X connect 1 2 0 2;
#X connect 2 0 1 0;
#X connect 3 0 1 0;
#X connect 4 0 3 0;
#X connect 5 0 2 0;
#X connect 5 0 4 0;
#X connect 6 0 4 1;
#X restore 1198 455 pd note;
#N canvas 128 128 450 300 note 0;
#X obj 179 210 noteout;
#X obj 165 154 unpack f f f;
#X msg 138 88 \$1 40 0;
#X msg 318 84 \$1 0 0;
#X obj 211 86 pipe \$1;
#X obj 121 22 inlet;
#X obj 321 23 inlet;
#X connect 1 0 0 0;
#X connect 1 1 0 1;
#X connect 1 2 0 2;
#X connect 2 0 1 0;
#X connect 3 0 1 0;
#X connect 4 0 3 0;
#X connect 5 0 2 0;
#X connect 5 0 4 0;
#X connect 6 0 4 1;
#X restore 1269 463 pd note;
#X obj 1335 456 ctlout;
#X obj 1337 394 / 1023;
#X obj 1337 418 * 127;
#X obj 278 320 route d2 d3 d4 d5 d6 a0, f 25;
#X text 48 129 Dispositivos disponoibles;
#X text 148 317 Ruteo de señales;
#X obj 1001 101 cnv 18 300 250 empty empty empty 20 12 0 14 #37d2bb
#404040 0;
#X floatatom 1018 221 5 0 0 0 - - - 0;
#X obj 1018 175 bng 30 250 50 0 empty empty empty 17 7 0 10 #fcfcfc
#000000 #000000;
#X floatatom 1019 141 4 0 0 0 - - - 0;
#X floatatom 1016 287 5 0 0 0 - - - 0;
#X floatatom 1057 223 5 0 0 0 - - - 0;
#X obj 1057 175 bng 30 250 50 0 empty empty empty 17 7 0 10 #fcfcfc
#000000 #000000;
#X floatatom 1096 224 5 0 0 0 - - - 0;
#X obj 1096 175 bng 30 250 50 0 empty empty empty 17 7 0 10 #fcfcfc
#000000 #000000;
#X floatatom 1136 224 5 0 0 0 - - - 0;
#X obj 1136 176 bng 30 250 50 0 empty empty empty 17 7 0 10 #fcfcfc
#000000 #000000;
#X floatatom 1176 224 5 0 0 0 - - - 0;
#X obj 1175 176 bng 30 250 50 0 empty empty empty 17 7 0 10 #fcfcfc
#000000 #000000;
#X floatatom 1222 223 5 0 0 0 - - - 0;
#X text 1056 140 # Puerto Serial;
#X text 1018 244 D2;
#X text 1058 245 D3;
#X text 1097 248 D4;
#X text 1143 249 D5;
#X text 1175 249 D6;
#X text 1215 249 A0;
#X text 1062 286 Duración nota;
#X connect 0 0 4 0;
#X connect 1 0 2 0;
#X connect 1 2 2 0;
#X connect 2 0 3 0;
#X connect 3 0 14 0;
#X connect 4 0 1 0;
#X connect 5 0 4 0;
#X connect 6 0 0 0;
#X connect 13 0 4 0;
#X connect 14 0 23 0;
#X connect 21 0 22 0;
#X connect 22 0 20 0;
#X connect 23 0 28 0;
#X connect 23 1 32 0;
#X connect 23 2 34 0;
#X connect 23 3 36 0;
#X connect 23 4 38 0;
#X connect 23 5 39 0;
#X connect 27 0 15 0;
#X connect 28 0 27 0;
#X connect 29 0 5 0;
#X connect 30 0 15 1;
#X connect 30 0 16 1;
#X connect 30 0 17 1;
#X connect 30 0 18 1;
#X connect 30 0 19 1;
#X connect 31 0 16 0;
#X connect 32 0 31 0;
#X connect 33 0 17 0;
#X connect 34 0 33 0;
#X connect 35 0 18 0;
#X connect 36 0 35 0;
#X connect 37 0 19 0;
#X connect 38 0 37 0;
#X connect 39 0 21 0;
#X coords 0 -1 1 1 300 250 2 1000 100;
